<?xml version="1.0" encoding="utf-8"?>
<!-- Generator: Adobe Illustrator 21.0.2, SVG Export Plug-In . SVG Version: 6.00 Build 0)  -->
<svg version="1.1" id="Layer_1" xmlns="http://www.w3.org/2000/svg" xmlns:xlink="http://www.w3.org/1999/xlink" x="0px" y="0px"
	 viewBox="0 0 20.9 18" style="enable-background:new 0 0 20.9 18;" xml:space="preserve">
<style type="text/css">
	.st0{fill:#242f51;}
</style>
<path id="ic_menu" class="st0" d="M19.5,2.9h-18C0.7,2.9,0,2.3,0,1.5l0,0C0,0.7,0.7,0,1.5,0h18C20.3,0,21,0.7,21,1.5l0,0
	C21,2.3,20.3,2.9,19.5,2.9z M10.6,10.4H1.5C0.7,10.4,0,9.8,0,9l0,0c0-0.8,0.7-1.5,1.5-1.5h9.2c0.8,0,1.5,0.7,1.5,1.5l0,0
	C12.1,9.8,11.4,10.4,10.6,10.4z M15.3,18H1.5C0.7,18,0,17.3,0,16.5l0,0C0,15.7,0.7,15,1.5,15h13.9c0.8,0,1.5,0.7,1.5,1.5l0,0
	C16.8,17.3,16.1,18,15.3,18L15.3,18z"/>
</svg>
